<svg id="Layer_1" data-name="Layer 1" xmlns="http://www.w3.org/2000/svg" xmlns:xlink="http://www.w3.org/1999/xlink" viewBox="0 0 800 800"><defs><style>.cls-1{fill:#fff;}.cls-2{fill:url(#linear-gradient);}.cls-3{fill:#1a2857;}.cls-4{fill:url(#New_Gradient_Swatch_1);}</style><linearGradient id="linear-gradient" x1="71.93" y1="323.59" x2="732.04" y2="323.59" gradientUnits="userSpaceOnUse"><stop offset="0" stop-color="#e32726"/><stop offset="0.16" stop-color="#db2727"/><stop offset="0.4" stop-color="#c62628"/><stop offset="0.7" stop-color="#a3242b"/><stop offset="1" stop-color="#79222e"/></linearGradient><radialGradient id="New_Gradient_Swatch_1" cx="401.99" cy="398.84" r="357.28" gradientUnits="userSpaceOnUse"><stop offset="0" stop-color="#0f98d5"/><stop offset="0.14" stop-color="#1091cd"/><stop offset="0.36" stop-color="#127eb8"/><stop offset="0.62" stop-color="#155f95"/><stop offset="0.92" stop-color="#193465"/><stop offset="1" stop-color="#1a2857"/></radialGradient></defs><title>MLS-Crest-FullColor</title><path class="cls-1" d="M778.52,46.48V0h-753V46.48s0,260.7,0,262.26A506,506,0,0,0,115.17,597.2L21.46,690.91,87.2,756.65,175,668.84a510.44,510.44,0,0,0,68.3,57.08,506.34,506.34,0,0,0,145.43,70.13L402,800l13.26-3.95a506.54,506.54,0,0,0,145.42-70.11,510.06,510.06,0,0,0,115-110.5,505.95,505.95,0,0,0,102.89-306.6c0-1.56,0-262.35,0-262.35"/><path class="cls-2" d="M732,45.71H72s0,253,0,262.38v.26A460.17,460.17,0,0,0,176.78,601.47L732,46.22Z"/><path class="cls-1" d="M402,751.31c190.88-56.81,330.07-233.63,330.07-443,0-1.52,0-249.5,0-262.13L176.78,601.48A462.56,462.56,0,0,0,402,751.31"/><path class="cls-3" d="M179.78,525.9,175.7,530l11.22,11.22-2.59,2.59-11.22-11.22L169,536.63l-2.1-2.1,10.73-10.73Zm17.46-2.78-5.82-13.06,3.72-3.72,13.32,13.32L206,522.08l-10.41-10.41-.06.06L202,526.12l-1.81,1.81-14.39-6.43-.06.06L196.13,532l-2.42,2.42-13.32-13.32,3.75-3.75Z"/><polygon class="cls-1" points="321.77 308 330.19 333.92 308.14 317.9 286.09 333.92 294.51 308 272.46 291.97 299.72 291.97 308.14 266.05 316.56 291.97 343.81 291.97 321.77 308"/><polygon class="cls-1" points="194.88 308 216.92 291.97 189.67 291.97 181.25 266.05 172.83 291.97 145.57 291.97 167.62 308 159.2 333.92 181.25 317.9 203.29 333.92 194.88 308"/><polygon class="cls-1" points="253.12 376.38 244.7 350.46 236.27 376.38 209.02 376.38 231.06 392.4 222.64 418.32 244.7 402.31 266.74 418.32 258.32 392.4 280.37 376.38 253.12 376.38"/><path class="cls-1" d="M170.64,206.49l-25-56.94h-.79v76a1.88,1.88,0,0,1-2,2H120.44a1.89,1.89,0,0,1-2-2V94.6a1.88,1.88,0,0,1,2-2h23.61a3,3,0,0,1,3.16,2l34.13,77h.8l33.52-77a3,3,0,0,1,3.18-2h23.21a1.87,1.87,0,0,1,2,2V225.54a1.87,1.87,0,0,1-2,2H219.64a1.88,1.88,0,0,1-2-2v-76h-.8l-25,56.94a3.8,3.8,0,0,1-3.78,2.59H174.4a3.79,3.79,0,0,1-3.76-2.59"/><path class="cls-1" d="M264.19,227.53h87.9a1.89,1.89,0,0,0,2-2v-22a1.88,1.88,0,0,0-2-2H292.56a1.05,1.05,0,0,1-1.19-1.19V94.6a1.87,1.87,0,0,0-2-2h-25.2a1.87,1.87,0,0,0-2,2V225.54a1.88,1.88,0,0,0,2,2"/><path class="cls-1" d="M427.27,146.37l-7.14-1c-15.47-2.18-21-7.14-21-14.88,0-8.54,6.15-14.68,18.05-14.68,11.11,0,21,3.57,31.35,10.32a2,2,0,0,0,2.77-.61l12.11-18.05c1-1.39.79-2.18-.39-3-11.32-8.73-28-14.09-45.84-14.09-29.17,0-47.81,16.47-47.81,41.27,0,23.81,15.27,36.7,42.66,40.48l7.14,1c16.07,2.18,20.83,7.15,20.83,15.09,0,9.51-7.93,16.07-22,16.07-14.28,0-26.38-6.74-35.32-13.89a2,2,0,0,0-3,.19l-15.08,17.26a2.45,2.45,0,0,0,.2,3.38c10.52,10.12,30.95,18.45,52,18.45,34.91,0,53-18.05,53-42.45s-14.69-37.1-42.47-40.88"/><path class="cls-4" d="M278.76,674.86a448.27,448.27,0,0,1-81-72.61L716.54,83.48c0,72.39,0,223.69,0,224.87A447,447,0,0,1,402,735.12a444.12,444.12,0,0,1-123.23-60.26m-101-97.19A444.55,444.55,0,0,1,87.42,308.35c0-1.33,0-191,0-247.15H695L178.08,578.12l-.34-.44M56.46,30.22V45.71s0,253.24,0,262.39v.25a475.56,475.56,0,0,0,96.6,288c1,1.29,2,2.56,3,3.83l-90.7,90.71L87.2,712.83l88.61-88.61A479.11,479.11,0,0,0,261,700.27a475.08,475.08,0,0,0,136.55,65.89l4.42,1.31,4.42-1.31A475.09,475.09,0,0,0,543,700.27a479.35,479.35,0,0,0,108-103.9,475.56,475.56,0,0,0,96.6-288c0-1.56,0-262.64,0-262.64V30.22Z"/></svg>